<svg xmlns="http://www.w3.org/2000/svg" width="512" height="512" viewBox="0 0 512 512" version="1.1"><path d="M 462.500 63.482 C 449.850 65.281, 428.250 67.934, 414.500 69.378 C 400.750 70.822, 378.025 72.877, 364 73.945 C 349.975 75.014, 326.350 76.421, 311.500 77.073 C 294.205 77.831, 266.169 78.055, 233.500 77.693 C 205.450 77.383, 175.075 76.651, 166 76.067 C 156.925 75.483, 140.500 74.311, 129.500 73.462 C 118.500 72.612, 98.925 70.794, 86 69.420 C 73.075 68.047, 54.175 65.781, 44 64.384 C 33.825 62.988, 23.475 61.768, 21 61.673 C 16.806 61.512, 16.504 61.670, 16.559 64 C 16.595 65.520, 22.577 75.185, 31.827 88.666 L 47.036 110.832 256.268 110.901 L 465.500 110.969 480.500 88.757 C 491.625 72.283, 495.500 65.764, 495.500 63.522 C 495.500 60.581, 495.365 60.496, 490.500 60.356 C 487.750 60.276, 475.150 61.683, 462.500 63.482 M 237 165.480 L 237 197 258.014 197 L 279.028 197 278.764 165.750 L 278.500 134.500 257.750 134.230 L 237 133.959 237 165.480" stroke="none" fill="#5a6272" fill-rule="evenodd"/><path d="M 72.750 110.667 L 67 111.100 67 123.050 L 67 135 98.500 135 C 127.838 135, 129.999 135.120, 129.988 136.750 C 129.982 137.713, 129.308 145.700, 128.492 154.500 C 127.676 163.300, 127.006 170.606, 127.004 170.735 C 127.002 170.864, 113.613 171.089, 97.250 171.235 L 67.500 171.500 67.220 183.699 C 66.951 195.396, 67.030 195.946, 69.147 197.078 C 70.786 197.956, 78.255 198.072, 98.204 197.531 L 125.055 196.803 124.512 200.651 C 124.213 202.768, 119.250 258.766, 113.484 325.091 C 107.718 391.416, 103 447.103, 103 448.841 L 103 452 131.531 452 C 153.479 452, 160.154 451.712, 160.457 450.750 C 160.674 450.063, 162.007 398.650, 163.419 336.500 C 164.831 274.350, 166.257 217.590, 166.589 210.366 L 167.192 197.232 258.002 197.232 L 348.812 197.232 349.408 209.366 C 349.735 216.040, 351.163 272.800, 352.580 335.500 C 353.998 398.200, 355.333 450.063, 355.547 450.750 C 355.847 451.712, 362.518 452, 384.469 452 L 413 452 413 448.912 C 413 447.214, 408.293 391.752, 402.540 325.662 C 396.787 259.573, 391.845 203.588, 391.559 201.250 L 391.038 197 418.049 197 L 445.060 197 444.780 184.250 L 444.500 171.500 416.750 171.234 C 401.488 171.088, 388.998 170.863, 388.996 170.734 C 388.994 170.605, 388.324 163.300, 387.508 154.500 C 386.692 145.700, 386.018 137.713, 386.012 136.750 C 386.001 135.123, 388.067 135, 415.500 135 L 445 135 445 123 L 445 111 276.659 111 C 184.071 111, 101.609 110.827, 93.409 110.617 C 85.209 110.406, 75.912 110.428, 72.750 110.667 M 202.750 134.734 L 168 135.026 168 151.431 C 168 160.454, 167.727 168.548, 167.393 169.418 C 166.847 170.842, 170.291 171, 201.893 171 L 237 171 237 184 L 237 197 258 197 L 279 197 279 184 L 279 171 313.750 171 L 348.500 171.001 348.153 153.250 C 347.962 143.488, 347.737 135.449, 347.653 135.387 C 347.569 135.325, 322.750 135.087, 292.500 134.858 C 262.250 134.629, 221.863 134.573, 202.750 134.734" stroke="none" fill="#de4763" fill-rule="evenodd"/></svg>